<svg width="80" height="80" viewBox="0 0 80 80" fill="none" xmlns="http://www.w3.org/2000/svg">
<path d="M21.08 1.07996C20.48 1.07996 20 1.55996 20 2.15996C20 2.75996 20.48 3.23996 21.08 3.23996C21.68 3.23996 22.16 2.75996 22.16 2.15996C22.16 1.55996 21.68 1.07996 21.08 1.07996Z" fill="#070E20"/>
<path d="M27.39 0C26.2 0 25.23 0.97 25.23 2.16C25.23 3.35 26.2 4.32 27.39 4.32C28.58 4.32 29.55 3.35 29.55 2.16C29.55 0.97 28.58 0 27.39 0Z" fill="#070E20"/>
<path d="M33.69 0C32.5 0 31.53 0.97 31.53 2.16C31.53 3.35 32.5 4.32 33.69 4.32C34.88 4.32 35.85 3.35 35.85 2.16C35.85 0.97 34.88 0 33.69 0Z" fill="#070E20"/>
<path d="M40 0C38.81 0 37.84 0.97 37.84 2.16C37.84 3.35 38.81 4.32 40 4.32C41.19 4.32 42.16 3.35 42.16 2.16C42.16 0.97 41.19 0 40 0Z" fill="#070E20"/>
<path d="M46.31 0C45.12 0 44.15 0.97 44.15 2.16C44.15 3.35 45.12 4.32 46.31 4.32C47.5 4.32 48.47 3.35 48.47 2.16C48.47 0.97 47.5 0 46.31 0Z" fill="#070E20"/>
<path d="M52.61 0C51.42 0 50.45 0.97 50.45 2.16C50.45 3.35 51.42 4.32 52.61 4.32C53.8 4.32 54.77 3.35 54.77 2.16C54.77 0.97 53.8 0 52.61 0Z" fill="#070E20"/>
<path d="M58.92 1.07996C58.32 1.07996 57.84 1.55996 57.84 2.15996C57.84 2.75996 58.32 3.23996 58.92 3.23996C59.52 3.23996 60 2.75996 60 2.15996C60 1.55996 59.52 1.07996 58.92 1.07996Z" fill="#070E20"/>
<path d="M2.15996 19.9976C1.55996 19.9976 1.07996 20.4776 1.07996 21.0776C1.07996 21.6776 1.55996 22.1576 2.15996 22.1576C2.75996 22.1576 3.23996 21.6776 3.23996 21.0776C3.23996 20.4776 2.75996 19.9976 2.15996 19.9976Z" fill="#070E20"/>
<path d="M77.84 19.9976C77.24 19.9976 76.76 20.4776 76.76 21.0776C76.76 21.6776 77.24 22.1576 77.84 22.1576C78.44 22.1576 78.92 21.6776 78.92 21.0776C78.92 20.4776 78.44 19.9976 77.84 19.9976Z" fill="#070E20"/>
<path d="M2.16 25.2268C0.97 25.2268 0 26.1968 0 27.3868C0 28.5768 0.97 29.5468 2.16 29.5468C3.35 29.5468 4.32 28.5768 4.32 27.3868C4.32 26.1968 3.35 25.2268 2.16 25.2268Z" fill="#070E20"/>
<path d="M14.77 1.62C14.47 1.62 14.23 1.86 14.23 2.16C14.23 2.46 14.47 2.7 14.77 2.7C15.07 2.7 15.31 2.46 15.31 2.16C15.31 1.86 15.07 1.62 14.77 1.62Z" fill="#070E20"/>
<path d="M65.2299 1.62C64.9299 1.62 64.6899 1.86 64.6899 2.16C64.6899 2.46 64.9299 2.7 65.2299 2.7C65.5299 2.7 65.7699 2.46 65.7699 2.16C65.7699 1.86 65.5299 1.62 65.2299 1.62Z" fill="#070E20"/>
<path d="M8.46 7.38904C7.86 7.38904 7.38 7.86904 7.38 8.46904C7.38 9.06904 7.86 9.54904 8.46 9.54904C9.06 9.54904 9.54 9.06904 9.54 8.46904C9.54 7.86904 9.06 7.38904 8.46 7.38904Z" fill="#070E20"/>
<path d="M71.54 7.38904C70.94 7.38904 70.46 7.86904 70.46 8.46904C70.46 9.06904 70.94 9.54904 71.54 9.54904C72.14 9.54904 72.62 9.06904 72.62 8.46904C72.62 7.86904 72.14 7.38904 71.54 7.38904Z" fill="#070E20"/>
<path d="M2.16 14.2283C1.86 14.2283 1.62 14.4683 1.62 14.7683C1.62 15.0683 1.86 15.3083 2.16 15.3083C2.46 15.3083 2.7 15.0683 2.7 14.7683C2.7 14.4683 2.46 14.2283 2.16 14.2283Z" fill="#070E20"/>
<path d="M77.84 14.2283C77.54 14.2283 77.3 14.4683 77.3 14.7683C77.3 15.0683 77.54 15.3083 77.84 15.3083C78.14 15.3083 78.38 15.0683 78.38 14.7683C78.38 14.4683 78.14 14.2283 77.84 14.2283Z" fill="#070E20"/>
<path d="M77.84 25.2268C76.65 25.2268 75.6801 26.1968 75.6801 27.3868C75.6801 28.5768 76.65 29.5468 77.84 29.5468C79.03 29.5468 80.0001 28.5768 80.0001 27.3868C80.0001 26.1968 79.03 25.2268 77.84 25.2268Z" fill="#070E20"/>
<path d="M2.16 31.536C0.97 31.536 0 32.506 0 33.696C0 34.886 0.97 35.856 2.16 35.856C3.35 35.856 4.32 34.886 4.32 33.696C4.32 32.506 3.35 31.536 2.16 31.536Z" fill="#070E20"/>
<path d="M77.84 31.536C76.65 31.536 75.6801 32.506 75.6801 33.696C75.6801 34.886 76.65 35.856 77.84 35.856C79.03 35.856 80.0001 34.886 80.0001 33.696C80.0001 32.506 79.03 31.536 77.84 31.536Z" fill="#070E20"/>
<path d="M2.16 37.8353C0.97 37.8353 0 38.8053 0 39.9953C0 41.1853 0.97 42.1553 2.16 42.1553C3.35 42.1553 4.32 41.1853 4.32 39.9953C4.32 38.8053 3.35 37.8353 2.16 37.8353Z" fill="#070E20"/>
<path d="M77.84 37.8353C76.65 37.8353 75.6801 38.8053 75.6801 39.9953C75.6801 41.1853 76.65 42.1553 77.84 42.1553C79.03 42.1553 80.0001 41.1853 80.0001 39.9953C80.0001 38.8053 79.03 37.8353 77.84 37.8353Z" fill="#070E20"/>
<path d="M2.15996 45.2244C1.55996 45.2244 1.07996 45.7044 1.07996 46.3044C1.07996 46.9044 1.55996 47.3844 2.15996 47.3844C2.75996 47.3844 3.23996 46.9044 3.23996 46.3044C3.23996 45.7044 2.75996 45.2244 2.15996 45.2244Z" fill="#070E20"/>
<path d="M77.84 45.2244C77.24 45.2244 76.76 45.7044 76.76 46.3044C76.76 46.9044 77.24 47.3844 77.84 47.3844C78.44 47.3844 78.92 46.9044 78.92 46.3044C78.92 45.7044 78.44 45.2244 77.84 45.2244Z" fill="#070E20"/>
<path d="M8.46005 50.4537C7.27005 50.4537 6.30005 51.4237 6.30005 52.6137C6.30005 53.8037 7.27005 54.7737 8.46005 54.7737C9.65005 54.7737 10.62 53.8037 10.62 52.6137C10.62 51.4237 9.65005 50.4537 8.46005 50.4537Z" fill="#070E20"/>
<path d="M71.54 50.4537C70.35 50.4537 69.38 51.4237 69.38 52.6137C69.38 53.8037 70.35 54.7737 71.54 54.7737C72.73 54.7737 73.7 53.8037 73.7 52.6137C73.7 51.4237 72.73 50.4537 71.54 50.4537Z" fill="#070E20"/>
<path d="M14.77 56.7629C13.58 56.7629 12.61 57.7329 12.61 58.9229C12.61 60.1129 13.58 61.0829 14.77 61.0829C15.96 61.0829 16.93 60.1129 16.93 58.9229C16.93 57.7329 15.96 56.7629 14.77 56.7629Z" fill="#070E20"/>
<path d="M65.2299 56.7629C64.0399 56.7629 63.0699 57.7329 63.0699 58.9229C63.0699 60.1129 64.0399 61.0829 65.2299 61.0829C66.42 61.0829 67.3899 60.1129 67.3899 58.9229C67.3899 57.7329 66.42 56.7629 65.2299 56.7629Z" fill="#070E20"/>
<path d="M21.08 63.0621C19.89 63.0621 18.92 64.0321 18.92 65.2221C18.92 66.4121 19.89 67.3821 21.08 67.3821C22.27 67.3821 23.24 66.4121 23.24 65.2221C23.24 64.0321 22.27 63.0621 21.08 63.0621Z" fill="#070E20"/>
<path d="M58.92 63.0621C57.73 63.0621 56.76 64.0321 56.76 65.2221C56.76 66.4121 57.73 67.3821 58.92 67.3821C60.11 67.3821 61.08 66.4121 61.08 65.2221C61.08 64.0321 60.11 63.0621 58.92 63.0621Z" fill="#070E20"/>
<path d="M27.3901 70.4512C26.7901 70.4512 26.3101 70.9312 26.3101 71.5312C26.3101 72.1312 26.7901 72.6112 27.3901 72.6112C27.9901 72.6112 28.4701 72.1312 28.4701 71.5312C28.4701 70.9312 27.9901 70.4512 27.3901 70.4512Z" fill="#070E20"/>
<path d="M52.61 70.4512C52.01 70.4512 51.53 70.9312 51.53 71.5312C51.53 72.1312 52.01 72.6112 52.61 72.6112C53.21 72.6112 53.69 72.1312 53.69 71.5312C53.69 70.9312 53.21 70.4512 52.61 70.4512Z" fill="#070E20"/>
<path d="M33.69 77.2903C33.39 77.2903 33.15 77.5303 33.15 77.8303C33.15 78.1303 33.39 78.3703 33.69 78.3703C33.99 78.3703 34.23 78.1303 34.23 77.8303C34.23 77.5303 33.99 77.2903 33.69 77.2903Z" fill="#070E20"/>
<path d="M40 76.7604C39.4 76.7604 38.92 77.2404 38.92 77.8404C38.92 78.4404 39.4 78.9204 40 78.9204C40.6 78.9204 41.08 78.4404 41.08 77.8404C41.08 77.2404 40.6 76.7604 40 76.7604Z" fill="#070E20"/>
<path d="M46.31 77.2903C46.01 77.2903 45.77 77.5303 45.77 77.8303C45.77 78.1303 46.01 78.3703 46.31 78.3703C46.61 78.3703 46.85 78.1303 46.85 77.8303C46.85 77.5303 46.61 77.2903 46.31 77.2903Z" fill="#070E20"/>
<path d="M65.32 14.1382C65.02 14.1382 64.78 14.3782 64.78 14.6782C64.78 14.9782 65.02 15.2182 65.32 15.2182C65.62 15.2182 65.86 14.9782 65.86 14.6782C65.86 14.3782 65.62 14.1382 65.32 14.1382Z" fill="#070E20"/>
<path d="M59.0101 19.9075C58.4101 19.9075 57.9301 20.3875 57.9301 20.9875C57.9301 21.5875 58.4101 22.0675 59.0101 22.0675C59.6101 22.0675 60.0901 21.5875 60.0901 20.9875C60.0901 20.3875 59.6101 19.9075 59.0101 19.9075Z" fill="#070E20"/>
<path d="M52.71 25.1368C51.52 25.1368 50.55 26.1068 50.55 27.2968C50.55 28.4868 51.52 29.4568 52.71 29.4568C53.9 29.4568 54.87 28.4868 54.87 27.2968C54.87 26.1068 53.9 25.1368 52.71 25.1368Z" fill="#070E20"/>
<path d="M46.21 31.3461C45.02 31.3461 44.05 32.3161 44.05 33.5061C44.05 34.6961 45.02 35.6661 46.21 35.6661C47.4 35.6661 48.37 34.6961 48.37 33.5061C48.37 32.3161 47.4 31.3461 46.21 31.3461Z" fill="#070E20"/>
<path d="M39.91 38.0752C38.72 38.0752 37.75 39.0452 37.75 40.2352C37.75 41.4252 38.72 42.3952 39.91 42.3952C41.1 42.3952 42.07 41.4252 42.07 40.2352C42.07 39.0452 41.1 38.0752 39.91 38.0752Z" fill="#070E20"/>
<path d="M33.5999 44.3844C32.4099 44.3844 31.4399 45.3544 31.4399 46.5444C31.4399 47.7344 32.4099 48.7044 33.5999 48.7044C34.7899 48.7044 35.7599 47.7344 35.7599 46.5444C35.7599 45.3544 34.7899 44.3844 33.5999 44.3844Z" fill="#070E20"/>
<path d="M27.2 51.8635C26.6 51.8635 26.12 52.3435 26.12 52.9435C26.12 53.5435 26.6 54.0235 27.2 54.0235C27.8 54.0235 28.28 53.5435 28.28 52.9435C28.28 52.3435 27.8 51.8635 27.2 51.8635Z" fill="#070E20"/>
<path d="M21.01 58.5327C20.71 58.5327 20.47 58.7727 20.47 59.0727C20.47 59.3727 20.71 59.6127 21.01 59.6127C21.31 59.6127 21.55 59.3727 21.55 59.0727C21.55 58.7727 21.31 58.5327 21.01 58.5327Z" fill="#070E20"/>
</svg>
