<svg width="80" height="80" viewBox="0 0 80 80" fill="none" xmlns="http://www.w3.org/2000/svg">
<path d="M40.0003 0C38.8103 0 37.8403 0.97 37.8403 2.16C37.8403 3.35 38.8103 4.32 40.0003 4.32C41.1903 4.32 42.1603 3.35 42.1603 2.16C42.1603 0.97 41.1903 0 40.0003 0Z" fill="#070E20"/>
<path d="M33.691 6.31006C32.501 6.31006 31.531 7.28006 31.531 8.47006C31.531 9.66006 32.501 10.6301 33.691 10.6301C34.881 10.6301 35.851 9.66006 35.851 8.47006C35.851 7.28006 34.881 6.31006 33.691 6.31006Z" fill="#070E20"/>
<path d="M40.0003 6.31006C38.8103 6.31006 37.8403 7.28006 37.8403 8.47006C37.8403 9.66006 38.8103 10.6301 40.0003 10.6301C41.1903 10.6301 42.1603 9.66006 42.1603 8.47006C42.1603 7.28006 41.1903 6.31006 40.0003 6.31006Z" fill="#070E20"/>
<path d="M46.3095 6.31006C45.1195 6.31006 44.1495 7.28006 44.1495 8.47006C44.1495 9.66006 45.1195 10.6301 46.3095 10.6301C47.4995 10.6301 48.4695 9.66006 48.4695 8.47006C48.4695 7.28006 47.4995 6.31006 46.3095 6.31006Z" fill="#070E20"/>
<path d="M27.3918 12.61C26.2018 12.61 25.2318 13.58 25.2318 14.77C25.2318 15.96 26.2018 16.93 27.3918 16.93C28.5818 16.93 29.5518 15.96 29.5518 14.77C29.5518 13.58 28.5818 12.61 27.3918 12.61Z" fill="#070E20"/>
<path d="M40.0003 12.61C38.8103 12.61 37.8403 13.58 37.8403 14.77C37.8403 15.96 38.8103 16.93 40.0003 16.93C41.1903 16.93 42.1603 15.96 42.1603 14.77C42.1603 13.58 41.1903 12.61 40.0003 12.61Z" fill="#070E20"/>
<path d="M52.6087 12.61C51.4187 12.61 50.4487 13.58 50.4487 14.77C50.4487 15.96 51.4187 16.93 52.6087 16.93C53.7987 16.93 54.7687 15.96 54.7687 14.77C54.7687 13.58 53.7987 12.61 52.6087 12.61Z" fill="#070E20"/>
<path d="M21.0824 20C20.4824 20 20.0024 20.48 20.0024 21.08C20.0024 21.68 20.4824 22.16 21.0824 22.16C21.6824 22.16 22.1624 21.68 22.1624 21.08C22.1624 20.48 21.6824 20 21.0824 20Z" fill="#070E20"/>
<path d="M40.0003 18.92C38.8103 18.92 37.8403 19.89 37.8403 21.08C37.8403 22.27 38.8103 23.24 40.0003 23.24C41.1903 23.24 42.1603 22.27 42.1603 21.08C42.1603 19.89 41.1903 18.92 40.0003 18.92Z" fill="#070E20"/>
<path d="M58.9178 20C58.3178 20 57.8378 20.48 57.8378 21.08C57.8378 21.68 58.3178 22.16 58.9178 22.16C59.5178 22.16 59.9978 21.68 59.9978 21.08C59.9978 20.48 59.5178 20 58.9178 20Z" fill="#070E20"/>
<path d="M40.0003 25.23C38.8103 25.23 37.8403 26.2 37.8403 27.39C37.8403 28.58 38.8103 29.55 40.0003 29.55C41.1903 29.55 42.1603 28.58 42.1603 27.39C42.1603 26.2 41.1903 25.23 40.0003 25.23Z" fill="#070E20"/>
<path d="M40.0003 31.54C38.8103 31.54 37.8403 32.51 37.8403 33.7C37.8403 34.89 38.8103 35.86 40.0003 35.86C41.1903 35.86 42.1603 34.89 42.1603 33.7C42.1603 32.51 41.1903 31.54 40.0003 31.54Z" fill="#070E20"/>
<path d="M21.0824 38.92C20.4824 38.92 20.0024 39.4 20.0024 40C20.0024 40.6 20.4824 41.08 21.0824 41.08C21.6824 41.08 22.1624 40.6 22.1624 40C22.1624 39.4 21.6824 38.92 21.0824 38.92Z" fill="#070E20"/>
<path d="M40.0002 38.92C39.4002 38.92 38.9202 39.4 38.9202 40C38.9202 40.6 39.4002 41.08 40.0002 41.08C40.6002 41.08 41.0802 40.6 41.0802 40C41.0802 39.4 40.6002 38.92 40.0002 38.92Z" fill="#070E20"/>
<path d="M58.9178 38.92C58.3178 38.92 57.8378 39.4 57.8378 40C57.8378 40.6 58.3178 41.08 58.9178 41.08C59.5178 41.08 59.9978 40.6 59.9978 40C59.9978 39.4 59.5178 38.92 58.9178 38.92Z" fill="#070E20"/>
<path d="M14.7734 44.15C13.5834 44.15 12.6134 45.12 12.6134 46.31C12.6134 47.5 13.5834 48.47 14.7734 48.47C15.9634 48.47 16.9334 47.5 16.9334 46.31C16.9334 45.12 15.9634 44.15 14.7734 44.15Z" fill="#070E20"/>
<path d="M40.0002 45.23C39.4002 45.23 38.9202 45.71 38.9202 46.31C38.9202 46.91 39.4002 47.39 40.0002 47.39C40.6002 47.39 41.0802 46.91 41.0802 46.31C41.0802 45.71 40.6002 45.23 40.0002 45.23Z" fill="#070E20"/>
<path d="M65.2271 44.15C64.0371 44.15 63.0671 45.12 63.0671 46.31C63.0671 47.5 64.0371 48.47 65.2271 48.47C66.4171 48.47 67.3871 47.5 67.3871 46.31C67.3871 45.12 66.4171 44.15 65.2271 44.15Z" fill="#070E20"/>
<path d="M8.4642 50.46C7.2742 50.46 6.3042 51.43 6.3042 52.62C6.3042 53.81 7.2742 54.78 8.4642 54.78C9.6542 54.78 10.6242 53.81 10.6242 52.62C10.6242 51.43 9.6542 50.46 8.4642 50.46Z" fill="#070E20"/>
<path d="M40.0001 52.08C39.7001 52.08 39.4601 52.32 39.4601 52.62C39.4601 52.92 39.7001 53.16 40.0001 53.16C40.3001 53.16 40.5401 52.92 40.5401 52.62C40.5401 52.32 40.3001 52.08 40.0001 52.08Z" fill="#070E20"/>
<path d="M71.5363 50.46C70.3463 50.46 69.3763 51.43 69.3763 52.62C69.3763 53.81 70.3463 54.78 71.5363 54.78C72.7263 54.78 73.6963 53.81 73.6963 52.62C73.6963 51.43 72.7263 50.46 71.5363 50.46Z" fill="#070E20"/>
<path d="M2.165 56.77C0.975005 56.77 0.00500488 57.74 0.00500488 58.93C0.00500488 60.12 0.975005 61.09 2.165 61.09C3.35501 61.09 4.32501 60.12 4.32501 58.93C4.32501 57.74 3.35501 56.77 2.165 56.77Z" fill="#070E20"/>
<path d="M8.4642 56.77C7.2742 56.77 6.3042 57.74 6.3042 58.93C6.3042 60.12 7.2742 61.09 8.4642 61.09C9.6542 61.09 10.6242 60.12 10.6242 58.93C10.6242 57.74 9.6542 56.77 8.4642 56.77Z" fill="#070E20"/>
<path d="M14.7734 56.77C13.5834 56.77 12.6134 57.74 12.6134 58.93C12.6134 60.12 13.5834 61.09 14.7734 61.09C15.9634 61.09 16.9334 60.12 16.9334 58.93C16.9334 57.74 15.9634 56.77 14.7734 56.77Z" fill="#070E20"/>
<path d="M21.0826 56.77C19.8926 56.77 18.9226 57.74 18.9226 58.93C18.9226 60.12 19.8926 61.09 21.0826 61.09C22.2726 61.09 23.2426 60.12 23.2426 58.93C23.2426 57.74 22.2726 56.77 21.0826 56.77Z" fill="#070E20"/>
<path d="M27.3918 56.77C26.2018 56.77 25.2318 57.74 25.2318 58.93C25.2318 60.12 26.2018 61.09 27.3918 61.09C28.5818 61.09 29.5518 60.12 29.5518 58.93C29.5518 57.74 28.5818 56.77 27.3918 56.77Z" fill="#070E20"/>
<path d="M33.691 57.84C33.091 57.84 32.611 58.32 32.611 58.92C32.611 59.52 33.091 60 33.691 60C34.291 60 34.771 59.52 34.771 58.92C34.771 58.32 34.291 57.84 33.691 57.84Z" fill="#070E20"/>
<path d="M40.0001 58.38C39.7001 58.38 39.4601 58.62 39.4601 58.92C39.4601 59.22 39.7001 59.46 40.0001 59.46C40.3001 59.46 40.5401 59.22 40.5401 58.92C40.5401 58.62 40.3001 58.38 40.0001 58.38Z" fill="#070E20"/>
<path d="M46.3094 57.84C45.7094 57.84 45.2294 58.32 45.2294 58.92C45.2294 59.52 45.7094 60 46.3094 60C46.9094 60 47.3894 59.52 47.3894 58.92C47.3894 58.32 46.9094 57.84 46.3094 57.84Z" fill="#070E20"/>
<path d="M52.6087 56.77C51.4187 56.77 50.4487 57.74 50.4487 58.93C50.4487 60.12 51.4187 61.09 52.6087 61.09C53.7987 61.09 54.7687 60.12 54.7687 58.93C54.7687 57.74 53.7987 56.77 52.6087 56.77Z" fill="#070E20"/>
<path d="M58.9179 56.77C57.7279 56.77 56.7579 57.74 56.7579 58.93C56.7579 60.12 57.7279 61.09 58.9179 61.09C60.1079 61.09 61.0779 60.12 61.0779 58.93C61.0779 57.74 60.1079 56.77 58.9179 56.77Z" fill="#070E20"/>
<path d="M65.2271 56.77C64.0371 56.77 63.0671 57.74 63.0671 58.93C63.0671 60.12 64.0371 61.09 65.2271 61.09C66.4171 61.09 67.3871 60.12 67.3871 58.93C67.3871 57.74 66.4171 56.77 65.2271 56.77Z" fill="#070E20"/>
<path d="M71.5363 56.77C70.3463 56.77 69.3763 57.74 69.3763 58.93C69.3763 60.12 70.3463 61.09 71.5363 61.09C72.7263 61.09 73.6963 60.12 73.6963 58.93C73.6963 57.74 72.7263 56.77 71.5363 56.77Z" fill="#070E20"/>
<path d="M77.8355 56.77C76.6455 56.77 75.6755 57.74 75.6755 58.93C75.6755 60.12 76.6455 61.09 77.8355 61.09C79.0255 61.09 79.9955 60.12 79.9955 58.93C79.9955 57.74 79.0255 56.77 77.8355 56.77Z" fill="#070E20"/>
<path d="M8.4642 63.0699C7.2742 63.0699 6.3042 64.0399 6.3042 65.2299C6.3042 66.42 7.2742 67.3899 8.4642 67.3899C9.6542 67.3899 10.6242 66.42 10.6242 65.2299C10.6242 64.0399 9.6542 63.0699 8.4642 63.0699Z" fill="#070E20"/>
<path d="M40.0002 64.15C39.4002 64.15 38.9202 64.63 38.9202 65.23C38.9202 65.83 39.4002 66.31 40.0002 66.31C40.6002 66.31 41.0802 65.83 41.0802 65.23C41.0802 64.63 40.6002 64.15 40.0002 64.15Z" fill="#070E20"/>
<path d="M71.5363 63.0699C70.3463 63.0699 69.3763 64.0399 69.3763 65.2299C69.3763 66.42 70.3463 67.3899 71.5363 67.3899C72.7263 67.3899 73.6963 66.42 73.6963 65.2299C73.6963 64.0399 72.7263 63.0699 71.5363 63.0699Z" fill="#070E20"/>
<path d="M14.7734 69.38C13.5834 69.38 12.6134 70.35 12.6134 71.54C12.6134 72.73 13.5834 73.7 14.7734 73.7C15.9634 73.7 16.9334 72.73 16.9334 71.54C16.9334 70.35 15.9634 69.38 14.7734 69.38Z" fill="#070E20"/>
<path d="M40.0003 69.38C38.8103 69.38 37.8403 70.35 37.8403 71.54C37.8403 72.73 38.8103 73.7 40.0003 73.7C41.1903 73.7 42.1603 72.73 42.1603 71.54C42.1603 70.35 41.1903 69.38 40.0003 69.38Z" fill="#070E20"/>
<path d="M65.2271 69.38C64.0371 69.38 63.0671 70.35 63.0671 71.54C63.0671 72.73 64.0371 73.7 65.2271 73.7C66.4171 73.7 67.3871 72.73 67.3871 71.54C67.3871 70.35 66.4171 69.38 65.2271 69.38Z" fill="#070E20"/>
<path d="M21.0824 76.77C20.4824 76.77 20.0024 77.25 20.0024 77.85C20.0024 78.45 20.4824 78.93 21.0824 78.93C21.6824 78.93 22.1624 78.45 22.1624 77.85C22.1624 77.25 21.6824 76.77 21.0824 76.77Z" fill="#070E20"/>
<path d="M40.0002 76.77C39.4002 76.77 38.9202 77.25 38.9202 77.85C38.9202 78.45 39.4002 78.93 40.0002 78.93C40.6002 78.93 41.0802 78.45 41.0802 77.85C41.0802 77.25 40.6002 76.77 40.0002 76.77Z" fill="#070E20"/>
<path d="M58.9178 76.77C58.3178 76.77 57.8378 77.25 57.8378 77.85C57.8378 78.45 58.3178 78.93 58.9178 78.93C59.5178 78.93 59.9978 78.45 59.9978 77.85C59.9978 77.25 59.5178 76.77 58.9178 76.77Z" fill="#070E20"/>
</svg>
