<svg xmlns="http://www.w3.org/2000/svg" width="48" height="24" fill="none"><path d="M4.355 14.08c.229.837.588 1.61 1.077 2.318a8.396 8.396 0 0 0 1.724 1.841c.661.52 1.4.924 2.22 1.213a7.653 7.653 0 0 0 2.567.433c1.35 0 2.528-.283 3.535-.845 1.006-.563 1.812-1.204 2.414-1.927h4.873a11.59 11.59 0 0 1-1.789 2.729 12.486 12.486 0 0 1-2.5 2.188 11.908 11.908 0 0 1-3.062 1.45c-1.106.347-2.263.52-3.47.52-1.638 0-3.185-.318-4.636-.953a12.16 12.16 0 0 1-3.794-2.578A12.26 12.26 0 0 1 .95 16.657 11.581 11.581 0 0 1 0 12c0-1.646.315-3.198.949-4.657A12.238 12.238 0 0 1 3.514 3.53 12.22 12.22 0 0 1 7.308.953 11.435 11.435 0 0 1 11.944 0c1.638 0 3.183.318 4.635.953a12.174 12.174 0 0 1 3.794 2.578 12.26 12.26 0 0 1 2.566 3.812c.632 1.459.949 3.01.949 4.657 0 .376-.015.736-.044 1.082-.03.347-.072.68-.13.996H4.354v.002ZM19.53 9.964a8.187 8.187 0 0 0-1.056-2.339 7.608 7.608 0 0 0-1.724-1.863 8.142 8.142 0 0 0-2.22-1.213 7.597 7.597 0 0 0-2.587-.432 7.32 7.32 0 0 0-2.566.455 8.513 8.513 0 0 0-2.242 1.234A7.728 7.728 0 0 0 5.41 7.648a7.87 7.87 0 0 0-1.056 2.318H19.53v-.002ZM24.617 2.86 27.548 0l8.71 9.054L44.966 0l2.93 2.859L39.105 12l8.795 9.14-2.931 2.859-8.71-9.054-8.708 9.054-2.931-2.859L33.412 12l-8.795-9.14Z" fill="#141d22"/></svg>