<svg width="128" height="56" viewBox="0 0 128 56" fill="none" xmlns="http://www.w3.org/2000/svg">
<g clip-path="url(#clip0_14715_5828)">
<path d="M22.3087 22.0212H21.2549V28.0001H22.2277C23.5895 28.0001 24.7244 27.753 25.454 27.2589C26.1836 26.8471 26.5889 26.0236 26.5889 24.9695C26.5889 23.0095 25.146 22.0212 22.3249 22.0212H22.3087Z" fill="#006A71"/>
<path d="M61.6248 39.7106V17.2776H70.0879V39.6612L83.5445 35.3624L67.9154 0L0 3.85412L18.8555 56L69.942 39.7106H61.641H61.6248ZM33.755 28.4118C33.1876 29.4 32.3932 30.2894 31.3393 30.9482C30.2855 31.6071 29.0047 32.1012 27.5455 32.4141C26.1026 32.7435 24.4813 32.9082 22.6331 32.9082H21.336V39.6282H12.954V17.2776H22.779C26.4917 17.2776 29.3776 17.9365 31.4852 19.1553C33.5767 20.3906 34.6305 22.3506 34.6305 24.8871C34.6305 26.2047 34.3063 27.3412 33.7388 28.4118H33.755ZM58.1715 38.9694C56.8745 39.2988 56.7286 39.3812 55.4315 39.6282C54.1345 39.8753 52.6916 40.04 51.0054 40.04C48.6708 40.04 46.5794 39.7929 44.7959 39.2165C42.9477 38.64 41.4075 37.8988 40.1267 36.9271C38.8459 35.9553 37.8731 34.72 37.2246 33.32C36.5761 31.8541 36.2518 30.2894 36.2518 28.5765C36.2518 26.8635 36.5761 25.2988 37.3056 23.8329C38.0352 22.4329 38.9918 21.2141 40.2888 20.1435C41.5858 19.1553 43.1098 18.3482 44.877 17.7718C46.6442 17.1953 48.5897 16.9482 50.6812 16.9482C52.2863 16.9482 53.8265 17.0306 55.1884 17.2776C56.0963 17.4973 56.9015 17.7443 57.6041 18.0188V23.9976C56.7934 23.5035 55.8369 23.0918 54.783 22.8447C53.7292 22.5153 52.6105 22.3506 51.4756 22.3506C49.5463 22.3506 48.0061 22.9271 46.8063 23.8988C45.5904 24.9694 45.0391 26.4353 45.0391 28.4776C45.0391 29.4659 45.2013 30.3553 45.6066 31.1788C46.0119 31.92 46.4983 32.5788 47.1306 33.0565C47.7791 33.5506 48.4925 33.9624 49.3842 34.2094C50.2759 34.4565 51.1514 34.6212 52.1241 34.6212C53.0969 34.6212 54.1345 34.5388 55.1073 34.2918C56.0801 34.0447 57.1177 33.7976 58.1715 33.3035V38.9529V38.9694ZM62.2733 6.63765C63.2461 5.73177 64.4459 5.32 65.905 5.32C67.3642 5.32 68.5639 5.73177 69.5367 6.63765C70.5094 7.46118 70.9796 8.68 70.9796 10.2447C70.9796 11.7106 70.4932 12.9459 69.5367 13.7694C68.5801 14.5929 67.3642 15.0871 65.905 15.0871C64.4459 15.0871 63.2461 14.6753 62.2733 13.7694C61.3006 12.9459 60.8304 11.7271 60.8304 10.2447C60.8304 8.69647 61.3168 7.54353 62.2733 6.63765Z" fill="#006A71"/>
<path d="M87.6793 17.2776H93.6294C95.0885 17.2776 96.3531 17.5576 97.3908 18.1176C98.4284 18.6776 99.239 19.5011 99.7903 20.5882C100.341 21.6752 100.617 23.0094 100.617 24.5905C100.617 26.1882 100.341 27.5388 99.7903 28.6588C99.239 29.7788 98.4446 30.6352 97.3908 31.2282C96.3369 31.8211 95.0886 32.1176 93.6132 32.1176H87.6631V17.2776H87.6793ZM93.1268 29.087C93.9374 29.087 94.6022 28.9223 95.1696 28.5929C95.7371 28.2635 96.1424 27.7693 96.418 27.1105C96.6936 26.4517 96.8395 25.6282 96.8395 24.6399C96.8395 23.7011 96.6936 22.9105 96.4018 22.2682C96.11 21.6258 95.6884 21.1482 95.1372 20.8188C94.586 20.4894 93.9212 20.3246 93.143 20.3246H91.4082V29.087H93.143H93.1268Z" fill="#006A71"/>
<path d="M104.913 31.8706C104.021 31.5248 103.324 31.0142 102.822 30.3389C102.319 29.6636 102.043 28.873 101.979 27.9177V27.7365H105.416V27.8354C105.497 28.1648 105.659 28.4448 105.902 28.6754C106.145 28.9059 106.469 29.1036 106.842 29.2354C107.215 29.3671 107.653 29.433 108.123 29.433C108.593 29.433 109.047 29.3671 109.388 29.2354C109.728 29.1036 110.02 28.9224 110.215 28.6918C110.409 28.4612 110.506 28.1812 110.506 27.8848C110.506 27.4565 110.328 27.1271 109.971 26.8965C109.615 26.6659 108.999 26.4683 108.156 26.3036L106.664 26.0071C105.221 25.7271 104.119 25.233 103.373 24.5248C102.627 23.8165 102.238 22.8777 102.238 21.7412C102.238 20.7695 102.481 19.9459 102.984 19.2542C103.486 18.5624 104.167 18.0024 105.043 17.6236C105.918 17.2448 106.907 17.0471 108.026 17.0471C109.242 17.0471 110.296 17.2283 111.139 17.5906C111.982 17.953 112.663 18.4801 113.133 19.1389C113.603 19.7977 113.862 20.5883 113.895 21.4777V21.6918H110.458V21.5765C110.409 21.2471 110.279 20.9671 110.069 20.7365C109.858 20.5059 109.582 20.3248 109.242 20.193C108.901 20.0612 108.496 19.9954 108.058 19.9954C107.621 19.9954 107.215 20.0612 106.907 20.193C106.599 20.3248 106.356 20.5059 106.178 20.7201C105.999 20.9342 105.934 21.1977 105.934 21.4777C105.934 21.8895 106.113 22.2024 106.469 22.433C106.826 22.6636 107.394 22.8612 108.188 23.0095L109.68 23.2895C110.717 23.4871 111.576 23.7671 112.241 24.1295C112.906 24.4918 113.409 24.953 113.733 25.513C114.057 26.073 114.219 26.7483 114.219 27.5389C114.219 28.5436 113.976 29.4001 113.49 30.1248C113.003 30.8495 112.306 31.4095 111.382 31.8048C110.458 32.2001 109.355 32.3977 108.075 32.3977C106.859 32.3977 105.805 32.2165 104.913 31.8706Z" fill="#006A71"/>
<path d="M118.418 31.8706C117.526 31.5248 116.829 31.0142 116.326 30.3389C115.824 29.6636 115.548 28.873 115.483 27.9177V27.7365H118.921V27.8354C119.002 28.1648 119.164 28.4448 119.407 28.6754C119.65 28.9059 119.974 29.1036 120.347 29.2354C120.72 29.3671 121.158 29.433 121.628 29.433C122.098 29.433 122.552 29.3671 122.893 29.2354C123.233 29.1036 123.525 28.9224 123.719 28.6918C123.914 28.4612 124.011 28.1812 124.011 27.8848C124.011 27.4565 123.833 27.1271 123.476 26.8965C123.12 26.6659 122.504 26.4683 121.66 26.3036L120.169 26.0071C118.726 25.7271 117.623 25.233 116.878 24.5248C116.132 23.8165 115.743 22.8777 115.743 21.7412C115.743 20.7695 115.986 19.9459 116.489 19.2542C116.991 18.5624 117.672 18.0024 118.548 17.6236C119.423 17.2448 120.412 17.0471 121.531 17.0471C122.747 17.0471 123.801 17.2283 124.644 17.5906C125.487 17.953 126.168 18.4801 126.638 19.1389C127.108 19.7977 127.367 20.5883 127.4 21.4777V21.6918H123.963V21.5765C123.914 21.2471 123.784 20.9671 123.574 20.7365C123.363 20.5059 123.087 20.3248 122.747 20.193C122.406 20.0612 122.001 19.9954 121.563 19.9954C121.125 19.9954 120.72 20.0612 120.412 20.193C120.104 20.3248 119.861 20.5059 119.683 20.7201C119.504 20.9342 119.439 21.1977 119.439 21.4777C119.439 21.8895 119.618 22.2024 119.974 22.433C120.331 22.6636 120.898 22.8612 121.693 23.0095L123.184 23.2895C124.222 23.4871 125.081 23.7671 125.746 24.1295C126.411 24.4918 126.913 24.953 127.238 25.513C127.562 26.073 127.724 26.7483 127.724 27.5389C127.724 28.5436 127.481 29.4001 126.994 30.1248C126.508 30.8495 125.811 31.4095 124.887 31.8048C123.963 32.2001 122.86 32.3977 121.579 32.3977C120.363 32.3977 119.31 32.2165 118.418 31.8706Z" fill="#006A71"/>
<path d="M88.6841 39.4141C88.3274 39.2165 88.0518 38.92 87.8573 38.5412C87.6627 38.1624 87.5654 37.7012 87.5654 37.1577C87.5654 36.6141 87.6627 36.153 87.8573 35.7741C88.0518 35.3953 88.3274 35.0989 88.6841 34.9012C89.0408 34.7036 89.4623 34.6047 89.9487 34.6047C90.3702 34.6047 90.7431 34.6871 91.0674 34.8518C91.3916 35.0165 91.6511 35.2471 91.8294 35.5436C92.0077 35.84 92.1212 36.1694 92.1374 36.5318V36.5647H90.9377V36.5153C90.9053 36.3341 90.8404 36.1859 90.7594 36.0541C90.6783 35.9224 90.5648 35.8236 90.4189 35.7412C90.273 35.6589 90.1108 35.6259 89.9163 35.6259C89.6893 35.6259 89.4948 35.6918 89.3326 35.8071C89.1705 35.9224 89.0408 36.1036 88.9435 36.3341C88.8462 36.5647 88.8138 36.8283 88.8138 37.1412C88.8138 37.4706 88.8625 37.7341 88.9435 37.9647C89.0408 38.1953 89.1543 38.36 89.3326 38.4918C89.511 38.6236 89.6893 38.673 89.9163 38.673C90.0946 38.673 90.2568 38.64 90.4027 38.5577C90.5486 38.4753 90.6621 38.3765 90.7431 38.2447C90.8242 38.113 90.8891 37.9483 90.9215 37.7671V37.7341H92.1212V37.7671C92.1212 38.1294 92.0077 38.4589 91.8132 38.7553C91.6186 39.0518 91.3592 39.2824 91.035 39.4471C90.7107 39.6118 90.3378 39.6941 89.9163 39.6941C89.4299 39.6941 89.0084 39.5953 88.6517 39.3812L88.6841 39.4141Z" fill="#006A71"/>
<path d="M93.7261 39.3977C93.3694 39.1835 93.0938 38.8871 92.8993 38.5082C92.7047 38.1294 92.6074 37.6682 92.6074 37.1412C92.6074 36.6141 92.7047 36.153 92.8993 35.7741C93.0938 35.3953 93.3694 35.0988 93.7423 34.8847C94.1152 34.6706 94.5205 34.5718 95.0231 34.5718C95.5257 34.5718 95.9473 34.6706 96.3039 34.8847C96.6606 35.0988 96.9362 35.3953 97.1308 35.7741C97.3253 36.153 97.4226 36.6141 97.4226 37.1412C97.4226 37.6682 97.3253 38.1294 97.1308 38.5082C96.9362 38.8871 96.6606 39.1835 96.3039 39.3977C95.9473 39.6118 95.5095 39.7106 95.0231 39.7106C94.5367 39.7106 94.099 39.6118 93.7423 39.3977H93.7261ZM95.623 38.4753C95.8013 38.3435 95.931 38.1788 96.0121 37.9482C96.1094 37.7177 96.158 37.4541 96.158 37.1412C96.158 36.8282 96.1094 36.5482 96.0121 36.3341C95.9148 36.12 95.7851 35.9388 95.623 35.8071C95.4609 35.6753 95.2501 35.6259 95.0231 35.6259C94.7962 35.6259 94.6016 35.6918 94.4233 35.8071C94.2449 35.9224 94.1152 36.1035 94.0179 36.3341C93.9207 36.5647 93.872 36.8282 93.872 37.1412C93.872 37.4541 93.9207 37.7341 94.0179 37.9482C94.1152 38.1788 94.2449 38.3435 94.407 38.4753C94.5692 38.6071 94.7799 38.6565 95.0069 38.6565C95.2339 38.6565 95.4447 38.5906 95.623 38.4753Z" fill="#006A71"/>
<path d="M98.0068 34.6707H99.4498L100.666 37.8989H100.682L101.898 34.6707H103.325V39.6118H102.238V36.5154H101.671L102.887 34.786L101.022 39.5954H100.309L98.4446 34.786L99.6605 36.5154H99.0931V39.6118H98.0068V34.6707Z" fill="#006A71"/>
<path d="M104.07 34.6707H105.302V39.6118H104.07V34.6707ZM104.703 37.2236H105.854C106.113 37.2236 106.324 37.1577 106.47 37.0259C106.616 36.8942 106.697 36.6965 106.697 36.433C106.697 36.1695 106.616 35.9718 106.47 35.8401C106.324 35.7083 106.113 35.6424 105.854 35.6424H104.703V34.6707H106.162C106.518 34.6707 106.843 34.7365 107.102 34.8848C107.362 35.033 107.572 35.2307 107.718 35.4942C107.864 35.7577 107.945 36.0707 107.945 36.4165C107.945 36.7789 107.864 37.0754 107.718 37.3389C107.572 37.6024 107.362 37.8001 107.102 37.9483C106.826 38.0965 106.518 38.1624 106.162 38.1624H104.703V37.2071V37.2236Z" fill="#006A71"/>
<path d="M108.496 34.6707H109.728V38.6071H111.738V39.6118H108.479V34.6707H108.496Z" fill="#006A71"/>
<path d="M112.307 34.6707H113.539V39.6118H112.307V34.6707Z" fill="#006A71"/>
<path d="M115.662 34.6707H116.797V35.7412H116.408L115.321 39.6118H114.024L115.662 34.6707ZM115.257 37.6354H117.591L117.867 38.5412H114.981L115.257 37.6354ZM116.424 35.7577V34.6871H117.17L118.807 39.6283H117.51L116.424 35.7577Z" fill="#006A71"/>
<path d="M119.277 34.6707H120.331L122.682 38.1295L121.774 37.5365H122.293V34.6871H123.525V39.6283H122.487L120.12 36.1365L121.012 36.7295H120.51V39.6118H119.277V34.6707Z" fill="#006A71"/>
<path d="M125.406 35.6917H124.061V34.687H127.984V35.6917H126.638V39.6282H125.406V35.6917Z" fill="#006A71"/>
</g>
<defs>
<clipPath id="clip0_14715_5828">
<rect width="128" height="56" fill="white"/>
</clipPath>
</defs>
</svg>
